<?xml version="1.0" standalone="no"?>
<!DOCTYPE svg PUBLIC "-//W3C//DTD SVG 20010904//EN"
 "http://www.w3.org/TR/2001/REC-SVG-20010904/DTD/svg10.dtd">
<svg version="1.0" xmlns="http://www.w3.org/2000/svg"
 width="512.000000pt" height="512.000000pt" viewBox="0 0 512.000000 512.000000"
 preserveAspectRatio="xMidYMid meet">
<metadata>
Created by potrace 1.11, written by Peter Selinger 2001-2013
</metadata>
<g transform="translate(0.000000,512.000000) scale(0.100000,-0.100000)"
fill="#000000" stroke="none">
<path d="M803 4626 c-104 -33 -178 -101 -214 -196 -18 -48 -19 -91 -19 -910 0
-854 0 -860 21 -917 39 -102 147 -187 257 -200 l51 -6 6 -51 c3 -28 30 -431
60 -896 30 -465 57 -873 61 -907 l5 -62 -169 -3 c-159 -3 -171 -4 -204 -27
-66 -46 -83 -82 -86 -193 l-4 -98 1356 0 1356 0 0 83 c0 102 -24 157 -88 202
l-44 30 -165 3 -165 3 5 57 c4 31 27 370 53 752 30 440 51 698 58 702 6 4 29
8 52 8 89 0 154 -82 162 -205 6 -89 -8 -169 -58 -350 -55 -200 -63 -248 -62
-355 2 -285 200 -523 497 -596 94 -24 276 -24 370 0 185 45 341 162 410 307
68 144 68 139 74 899 l6 685 49 7 c36 5 58 15 80 38 l31 30 0 491 0 491 -33
29 c-18 16 -46 32 -62 35 -24 5 -37 21 -75 88 -98 173 -268 381 -407 497 -49
41 -66 49 -99 49 -73 0 -149 -55 -149 -107 0 -13 26 -52 63 -95 101 -116 153
-193 213 -312 l55 -110 -28 -11 c-46 -17 -71 -34 -77 -53 -5 -14 -24 -21 -84
-30 -100 -16 -189 -58 -258 -124 -98 -92 -144 -200 -144 -337 0 -126 39 -227
122 -317 75 -81 203 -144 294 -144 40 0 44 -3 60 -36 21 -43 54 -66 106 -74
l40 -5 -1 -590 c-2 -669 -7 -740 -66 -855 -54 -106 -171 -170 -309 -170 -172
0 -324 96 -362 229 -24 80 -14 246 21 371 54 191 65 237 76 331 25 221 -47
411 -200 520 -65 47 -162 79 -237 79 l-54 0 0 49 0 48 50 6 c112 13 208 84
256 190 l29 62 -3 870 -2 869 -24 52 c-33 71 -87 128 -154 161 l-57 28 -1100
2 c-890 1 -1108 -1 -1142 -11z m1940 -397 c47 -13 102 -60 128 -110 18 -36 19
-64 19 -599 0 -532 -1 -563 -19 -598 -11 -20 -32 -49 -48 -64 -63 -60 -29 -58
-891 -58 -563 0 -799 3 -823 11 -57 19 -100 59 -125 114 l-24 53 2 554 3 555
30 48 c22 36 45 57 84 77 l53 28 787 0 c518 0 799 -4 824 -11z m1715 -811 c17
-17 17 -919 0 -936 -9 -9 -73 -12 -225 -12 -200 0 -213 1 -223 19 -6 13 -10
177 -10 465 0 391 2 446 16 460 13 14 48 16 223 16 148 0 210 -3 219 -12z
m-528 -458 l0 -280 -27 0 c-48 0 -126 44 -175 99 -96 106 -104 240 -22 348 43
56 142 111 202 113 l22 0 0 -280z"/>
<path d="M1237 3944 c-38 -21 -47 -50 -47 -160 0 -92 1 -97 29 -125 l29 -29
427 0 427 0 29 29 c28 28 29 33 29 125 0 111 -9 140 -49 161 -44 22 -832 22
-874 -1z"/>
<path d="M2464 3951 c-43 -19 -54 -49 -54 -153 0 -147 17 -168 136 -168 56 0
68 4 89 25 24 23 25 30 25 138 0 109 -1 115 -25 137 -20 19 -39 25 -88 27 -34
2 -72 -1 -83 -6z"/>
<path d="M1218 3380 l-30 -30 4 -110 c3 -98 5 -112 26 -132 l23 -23 434 0 434
0 23 23 c21 21 23 31 23 138 0 114 0 116 -28 140 l-28 24 -425 0 -426 0 -30
-30z"/>
<path d="M2439 3381 c-28 -29 -29 -32 -29 -135 0 -96 2 -107 24 -133 21 -24
32 -28 93 -31 63 -4 72 -2 101 23 l32 27 0 108 c0 60 -3 116 -6 125 -11 27
-60 45 -124 45 -55 0 -65 -3 -91 -29z"/>
</g>
</svg>
